<svg width="25" height="24" viewBox="0 0 25 24" fill="none" xmlns="http://www.w3.org/2000/svg">
<path fill-rule="evenodd" clip-rule="evenodd" d="M20.8551 7.65923C21.5264 8.17823 21.9382 8.94923 22.0083 9.78823L22.0183 9.98923V18.0982C22.0183 20.1882 20.3642 21.8882 18.2913 21.9982H16.2975C15.3447 21.9792 14.5743 21.2392 14.5042 20.3092L14.4941 20.1682V17.3092C14.4941 16.9982 14.2627 16.7392 13.9531 16.6882L13.8629 16.6782H11.1869C10.8673 16.6882 10.6068 16.9182 10.5667 17.2182L10.5567 17.3092V20.1592C10.5567 20.2182 10.5457 20.2882 10.5367 20.3382L10.5267 20.3592L10.5156 20.4282C10.3964 21.2792 9.69508 21.9282 8.82344 21.9892L8.69319 21.9982H6.89981C4.80586 21.9982 3.09263 20.3592 2.98242 18.2982V9.98923C2.99144 9.13823 3.36314 8.34823 3.98431 7.79823L10.2261 2.78823C11.4985 1.77923 13.2818 1.73923 14.5933 2.66823L14.7546 2.78823L20.8551 7.65923ZM20.6147 18.2582L20.6257 18.0982V9.99823C20.6147 9.56923 20.4353 9.16823 20.1248 8.86923L19.9945 8.75823L13.883 3.87823C13.1215 3.26823 12.0395 3.23923 11.238 3.76823L11.0867 3.87823L4.99522 8.77923C4.64556 9.03823 4.43516 9.42823 4.38507 9.83823L4.37405 9.99823V18.0982C4.37405 19.4282 5.41601 20.5182 6.73951 20.5982H8.69319C8.91361 20.5982 9.10397 20.4492 9.13302 20.2392L9.15406 20.0592L9.16408 20.0082V17.3092C9.16408 16.2392 9.98563 15.3692 11.0376 15.2882H13.8629C14.934 15.2882 15.8056 16.1092 15.8868 17.1592V20.1682C15.8868 20.3782 16.037 20.5592 16.2374 20.5982H18.0999C19.4425 20.5982 20.5345 19.5692 20.6147 18.2582Z" fill="#6A6A8B"/>
</svg>
