<svg width="25" height="24" viewBox="0 0 25 24" fill="none" xmlns="http://www.w3.org/2000/svg">
<path fill-rule="evenodd" clip-rule="evenodd" d="M2.48108 10.6699C2.48108 5.88166 6.32868 2 11.0749 2C13.3542 2 15.5401 2.91344 17.1517 4.53936C18.7634 6.16529 19.6688 8.37052 19.6688 10.6699C19.6688 15.4582 15.8212 19.3399 11.0749 19.3399C6.32868 19.3399 2.48108 15.4582 2.48108 10.6699ZM19.5266 17.6543L22.0861 19.7164H22.1305C22.6484 20.2388 22.6484 21.0858 22.1305 21.6082C21.6127 22.1306 20.7732 22.1306 20.2553 21.6082L18.1313 19.1785C17.9305 18.9766 17.8176 18.7024 17.8176 18.4164C17.8176 18.1304 17.9305 17.8562 18.1313 17.6543C18.5186 17.2704 19.1393 17.2704 19.5266 17.6543Z" fill="#4838D1"/>
</svg>
