<svg width="20" height="20" viewBox="0 0 20 20" fill="none" xmlns="http://www.w3.org/2000/svg">
<path fill-rule="evenodd" clip-rule="evenodd" d="M14.3345 0.000244141H5.66549C2.26791 0.000244141 0.000488281 2.43284 0.000488281 5.91624V14.0842C0.000488281 17.5709 2.26186 20.0002 5.66549 20.0002H14.3335C17.7381 20.0002 20.0005 17.5709 20.0005 14.0842V5.91624C20.0005 2.42975 17.7383 0.000244141 14.3345 0.000244141ZM5.66549 1.50024H14.3345C16.885 1.50024 18.5005 3.23521 18.5005 5.91624V14.0842C18.5005 16.7654 16.8849 18.5002 14.3335 18.5002H5.66549C3.11525 18.5002 1.50049 16.7656 1.50049 14.0842V5.91624C1.50049 3.23862 3.12083 1.50024 5.66549 1.50024ZM7.07071 7.06246C7.33701 6.79622 7.75367 6.77206 8.04726 6.98994L8.13137 7.06257L9.99909 8.93068L11.8652 7.06461C12.1581 6.77172 12.6329 6.77172 12.9258 7.06461C13.1921 7.33088 13.2163 7.74754 12.9984 8.04116L12.9258 8.12527L11.0596 9.99145L12.9274 11.8596C13.2202 12.1525 13.2202 12.6274 12.9273 12.9202C12.661 13.1865 12.2443 13.2106 11.9507 12.9927L11.8666 12.9201L9.99898 11.0521L8.13382 12.9173C7.84093 13.2102 7.36605 13.2102 7.07316 12.9173C6.80689 12.651 6.78269 12.2343 7.00054 11.9407L7.07316 11.8566L8.93843 9.99134L7.0706 8.12312C6.77774 7.83019 6.77779 7.35532 7.07071 7.06246Z" fill="#2E2E5D"/>
</svg>
