<svg width="20" height="20" viewBox="0 0 20 20" fill="none" xmlns="http://www.w3.org/2000/svg">
<path fill-rule="evenodd" clip-rule="evenodd" d="M3.30722 11.5963L11.3827 3.68035C12.4217 2.66189 14.1069 2.66189 15.1459 3.68035L16.2245 4.73767C17.2635 5.75613 17.2635 7.40804 16.2245 8.42651L8.11717 16.3737C7.65359 16.8281 7.02506 17.0831 6.36901 17.0831H3.04878C2.74035 17.0831 2.49249 16.834 2.50017 16.5317L2.58369 13.2477C2.6003 12.627 2.85939 12.0353 3.30722 11.5963ZM15.4484 5.49844L14.3698 4.44112C13.7594 3.84281 12.7691 3.84281 12.1588 4.44112L11.5318 5.05566L14.8218 8.27995L15.4484 7.66575C16.0588 7.06744 16.0588 6.09674 15.4484 5.49844ZM4.08331 12.3571L10.7558 5.81642L14.0457 9.04071L7.34107 15.6129L7.25189 15.693C7.00558 15.8952 6.69351 16.0072 6.36901 16.0072L3.6112 16.0068L3.68089 13.2752C3.69011 12.9306 3.83438 12.6011 4.08331 12.3571ZM17.5 16.5452C17.5 16.2481 17.2543 16.0073 16.9512 16.0073H11.2258L11.1514 16.0122C10.8835 16.0478 10.677 16.2729 10.677 16.5452C10.677 16.8423 10.9227 17.0832 11.2258 17.0832H16.9512L17.0257 17.0783C17.2935 17.0426 17.5 16.8176 17.5 16.5452Z" fill="#2E2E5D"/>
</svg>
