<svg width="34" height="34" viewBox="0 0 34 34" fill="none" xmlns="http://www.w3.org/2000/svg">
<path fill-rule="evenodd" clip-rule="evenodd" d="M0.333374 17.0096C0.333374 7.81034 7.81407 0.333252 17 0.333252C26.186 0.333252 33.6667 7.81034 33.6667 17.0096C33.6667 26.1895 26.186 33.6666 17 33.6666C7.81407 33.6666 0.333374 26.1895 0.333374 17.0096ZM23.1133 18.6964C23.2903 18.5195 23.5155 18.2462 23.5637 18.1819C23.8211 17.8442 23.9498 17.4261 23.9498 17.0096C23.9498 16.5417 23.8051 16.1076 23.5316 15.7538C23.5092 15.7314 23.4653 15.6836 23.4081 15.6214C23.3011 15.5049 23.1474 15.3377 23.0007 15.191C21.6815 13.776 18.2388 11.4605 16.437 10.753C16.1635 10.6421 15.4717 10.3993 15.1017 10.3832C14.7478 10.3832 14.4099 10.4636 14.0882 10.6244C13.686 10.8495 13.3643 11.2032 13.1873 11.6213C13.0747 11.9108 12.8977 12.7791 12.8977 12.7951C12.7208 13.7438 12.6242 15.2875 12.6242 16.992C12.6242 18.6176 12.7208 20.0954 12.8655 21.0601C12.8695 21.0641 12.8834 21.1331 12.9049 21.2403C12.9702 21.5662 13.1064 22.2451 13.2516 22.5234C13.6056 23.1987 14.2973 23.6168 15.0374 23.6168H15.1017C15.5843 23.6007 16.5978 23.1827 16.5978 23.1666C18.3031 22.4591 21.6654 20.2561 23.0168 18.7929L23.1133 18.6964Z" fill="#4838D1"/>
</svg>
