<svg width="24" height="24" viewBox="0 0 24 24" fill="none" xmlns="http://www.w3.org/2000/svg">
<path fill-rule="evenodd" clip-rule="evenodd" d="M16.3347 2H7.6657C4.26812 2 2.0007 4.4326 2.0007 7.916V16.084C2.0007 19.5711 4.26139 22 7.6657 22H16.3337C19.7383 22 22.0007 19.5707 22.0007 16.084V7.916C22.0007 4.4295 19.7385 2 16.3347 2ZM7.6657 3.5H16.3347C18.8852 3.5 20.5007 5.23496 20.5007 7.916V16.084C20.5007 18.7652 18.8851 20.5 16.3337 20.5H7.6657C5.11484 20.5 3.5007 18.7657 3.5007 16.084V7.916C3.5007 5.23837 5.12104 3.5 7.6657 3.5ZM12.7435 7.53173C12.6938 7.16565 12.38 6.8835 12.0003 6.8835C11.5861 6.8835 11.2503 7.21929 11.2503 7.6335V11.9945L11.2587 12.1062C11.2918 12.3263 11.4216 12.5226 11.616 12.6386L15.007 14.6616L15.098 14.7079C15.4378 14.8528 15.8409 14.7278 16.0354 14.4018L16.0816 14.3108C16.2265 13.971 16.1016 13.5679 15.7755 13.3734L12.75 11.5678L12.7503 7.6335L12.7435 7.53173Z" fill="#2E2E5D"/>
</svg>
