<svg width="21" height="21" viewBox="0 0 21 21" fill="none" xmlns="http://www.w3.org/2000/svg">
<path fill-rule="evenodd" clip-rule="evenodd" d="M10.5 2.16675C5.89764 2.16675 2.16667 5.89772 2.16667 10.5001C2.16667 15.1024 5.89764 18.8334 10.5 18.8334C15.1024 18.8334 18.8333 15.1024 18.8333 10.5001C18.8333 5.89772 15.1024 2.16675 10.5 2.16675ZM10.5 3.32955C14.4602 3.32955 17.6705 6.53992 17.6705 10.5001C17.6705 14.4603 14.4602 17.6706 10.5 17.6706C6.5398 17.6706 3.32944 14.4603 3.32944 10.5001C3.32944 6.53992 6.5398 3.32955 10.5 3.32955ZM9.55958 7.21222L9.47287 7.20397C9.30866 7.19834 9.13926 7.23956 8.98993 7.32012C8.79664 7.42359 8.64061 7.59127 8.55411 7.79889C8.51434 7.89499 8.44558 8.19167 8.41465 8.36397C8.33699 8.78743 8.29182 9.43865 8.28417 10.1533L8.28302 10.3936C8.2822 11.1519 8.32406 11.8736 8.40142 12.3492L8.44384 12.5676C8.48606 12.7619 8.54216 12.9689 8.58711 13.0562C8.7586 13.3875 9.10746 13.5921 9.47822 13.5803C9.63634 13.5768 9.96852 13.4664 10.1995 13.3694C11.0314 13.0195 12.4964 12.0387 13.1734 11.3774L13.3982 11.1435C13.4842 11.0515 13.5229 11.0087 13.5557 10.964C13.6781 10.7976 13.7419 10.5966 13.7419 10.393C13.7419 10.1768 13.6707 9.96567 13.5348 9.79341L13.4684 9.71662L13.2821 9.51769C12.6429 8.83647 10.9704 7.7133 10.1161 7.38135C9.92816 7.30708 9.71625 7.23592 9.55958 7.21222ZM9.58836 8.42646L9.69182 8.46399C10.3472 8.71865 11.7379 9.64164 12.3311 10.2097L12.5077 10.3916L12.4408 10.4638C11.9461 10.9972 10.4851 11.9878 9.74903 12.2975L9.58913 12.3559L9.54874 12.1603C9.49078 11.8039 9.45392 11.2399 9.44697 10.6259L9.44579 10.3937C9.4451 9.72408 9.4793 9.09926 9.53821 8.69712L9.5665 8.53141L9.58836 8.42646Z" fill="white"/>
</svg>
