<svg width="24" height="24" viewBox="0 0 24 24" fill="none" xmlns="http://www.w3.org/2000/svg">
<path fill-rule="evenodd" clip-rule="evenodd" d="M7.5208 13.1975C6.8598 13.1975 6.3228 12.6605 6.3228 12.0005C6.3228 11.3405 6.8598 10.8025 7.5208 10.8025C8.1818 10.8025 8.7188 11.3405 8.7188 12.0005C8.7188 12.6605 8.1818 13.1975 7.5208 13.1975ZM12.0002 13.1975C11.3392 13.1975 10.8022 12.6605 10.8022 12.0005C10.8022 11.3405 11.3392 10.8025 12.0002 10.8025C12.6612 10.8025 13.1982 11.3405 13.1982 12.0005C13.1982 12.6605 12.6612 13.1975 12.0002 13.1975ZM15.2812 12.0005C15.2812 12.6605 15.8182 13.1975 16.4792 13.1975C17.1402 13.1975 17.6772 12.6605 17.6772 12.0005C17.6772 11.3405 17.1402 10.8025 16.4792 10.8025C15.8182 10.8025 15.2812 11.3405 15.2812 12.0005Z" fill="#2E2E5D"/>
</svg>
