<svg width="25" height="24" viewBox="0 0 25 24" fill="none" xmlns="http://www.w3.org/2000/svg">
<path d="M9.62937 20.7733V17.7156C9.62937 16.9351 10.268 16.3023 11.0557 16.3023H13.9353C14.3136 16.3023 14.6764 16.4512 14.9439 16.7163C15.2114 16.9813 15.3617 17.3408 15.3617 17.7156V20.7733C15.3593 21.0978 15.4877 21.4099 15.7184 21.6402C15.9492 21.8705 16.2632 22 16.5907 22H18.5553C19.4728 22.0023 20.3536 21.6428 21.0032 21.0008C21.6529 20.3588 22.018 19.487 22.018 18.5778V9.86686C22.0179 9.13246 21.6894 8.43584 21.1209 7.96467L14.4377 2.67587C13.2751 1.74856 11.6094 1.7785 10.4816 2.74698L3.9509 7.96467C3.3555 8.42195 2.99964 9.12064 2.98206 9.86686V18.5689C2.98206 20.4639 4.53236 22 6.44476 22H8.3645C9.04472 22 9.59753 21.4562 9.60246 20.7822L9.62937 20.7733Z" fill="#4838D1"/>
</svg>
