<svg width="25" height="24" viewBox="0 0 25 24" fill="none" xmlns="http://www.w3.org/2000/svg">
<path fill-rule="evenodd" clip-rule="evenodd" d="M8.30207 2H16.6989C19.7938 2 21.517 3.78 21.517 6.83V17.16C21.517 20.26 19.7938 22 16.6989 22H8.30207C5.25633 22 3.48298 20.26 3.48298 17.16V6.83C3.48298 3.78 5.25633 2 8.30207 2ZM8.57258 6.66V6.65H11.5672C11.999 6.65 12.3497 7 12.3497 7.429C12.3497 7.87 11.999 8.22 11.5672 8.22H8.57258C8.14077 8.22 7.79111 7.87 7.79111 7.44C7.79111 7.01 8.14077 6.66 8.57258 6.66ZM8.57258 12.74H16.4274C16.8582 12.74 17.2089 12.39 17.2089 11.96C17.2089 11.53 16.8582 11.179 16.4274 11.179H8.57258C8.14077 11.179 7.79111 11.53 7.79111 11.96C7.79111 12.39 8.14077 12.74 8.57258 12.74ZM8.57258 17.31H16.4274C16.8272 17.27 17.1287 16.929 17.1287 16.53C17.1287 16.12 16.8272 15.78 16.4274 15.74H8.57258C8.27202 15.71 7.98147 15.85 7.82117 16.11C7.66086 16.36 7.66086 16.69 7.82117 16.95C7.98147 17.2 8.27202 17.35 8.57258 17.31Z" fill="#4838D1"/>
</svg>
